<svg width="16" height="17" viewBox="0 0 16 17" fill="none" xmlns="http://www.w3.org/2000/svg">
<path d="M14.023 0C13.5115 0 13.0107 0.210672 12.6247 0.620667L6.00986 7.62534L5.86362 7.78068L5.82222 8.0027L5.3628 10.4854L5.15446 11.5267L6.1354 11.3054L8.47257 10.8173L8.68091 10.7734L8.82715 10.618L15.4213 3.59136C15.6977 3.29703 15.8858 2.92237 15.962 2.51461C16.0383 2.10686 15.9991 1.68426 15.8496 1.3001C15.7 0.915929 15.4468 0.587391 15.1217 0.355899C14.7967 0.124407 14.4144 0.00103274 14.023 0ZM14.023 1.37469C14.1793 1.37469 14.3335 1.45981 14.4824 1.61799C14.7796 1.93435 14.7796 2.27767 14.4824 2.59332L8.01315 9.46606L6.86526 9.71007L7.09497 8.49072L13.5643 1.6187C13.7125 1.46123 13.8667 1.37469 14.023 1.37469ZM0 2.81535V17.002H13.3552V7.64733L12.0197 9.06599V15.5834H1.33552V4.23401H7.47092L8.80645 2.81535H0Z" fill="black" fill-opacity="0.6"/>
</svg>
