<svg width="22" height="22" viewBox="0 0 22 22" fill="none" xmlns="http://www.w3.org/2000/svg">
<path d="M14.6137 13.553C14.3208 13.2601 13.8459 13.2601 13.553 13.553C13.2601 13.8459 13.2601 14.3208 13.553 14.6137L14.6137 13.553ZM20.2197 21.2803C20.5126 21.5732 20.9874 21.5732 21.2803 21.2803C21.5732 20.9874 21.5732 20.5126 21.2803 20.2197L20.2197 21.2803ZM8.52778 15.5556C4.64644 15.5556 1.5 12.4091 1.5 8.52778H0C0 13.2375 3.81802 17.0556 8.52778 17.0556V15.5556ZM15.5556 8.52778C15.5556 12.4091 12.4091 15.5556 8.52778 15.5556V17.0556C13.2375 17.0556 17.0556 13.2375 17.0556 8.52778H15.5556ZM8.52778 1.5C12.4091 1.5 15.5556 4.64644 15.5556 8.52778H17.0556C17.0556 3.81802 13.2375 0 8.52778 0V1.5ZM8.52778 0C3.81802 0 0 3.81802 0 8.52778H1.5C1.5 4.64644 4.64644 1.5 8.52778 1.5V0ZM13.553 14.6137L20.2197 21.2803L21.2803 20.2197L14.6137 13.553L13.553 14.6137Z" fill="#696969"/>
</svg>
