<svg width="13" height="13" viewBox="0 0 13 13" fill="none" xmlns="http://www.w3.org/2000/svg">
<path d="M5.74197 12.0997C5.74264 12.4514 6.02828 12.736 6.37995 12.7353C6.73162 12.7346 7.01617 12.449 7.0155 12.0973L7.00578 7.00322L12.0999 6.99351C12.4515 6.99284 12.7361 6.70721 12.7354 6.35554C12.7347 6.00386 12.4491 5.71932 12.0974 5.71999L7.00335 5.7297L6.99364 0.635615C6.99297 0.283942 6.70734 -0.000602441 6.35567 6.81403e-05C6.00399 0.000738723 5.71945 0.28637 5.72012 0.638044L5.72983 5.73213L0.635746 5.74184C0.284072 5.74251 -0.000472315 6.02815 0.000198267 6.37982C0.000868848 6.73149 0.2865 7.01604 0.638174 7.01537L5.73226 7.00565L5.74197 12.0997Z" fill="black" fill-opacity="0.7"/>
</svg>
